<svg width="235" height="44" viewBox="0 0 235 44" fill="none" xmlns="http://www.w3.org/2000/svg">
<path d="M6.20581 10.9082C6.3058 11.0642 8.0557 13.7823 8.1557 13.9384" stroke="white" stroke-width="1.35" stroke-miterlimit="10" stroke-linecap="round"/>
<path d="M8.20581 13.8946C8.3298 13.7566 10.4857 11.3485 10.6097 11.2104" stroke="white" stroke-width="1.35" stroke-miterlimit="10" stroke-linecap="round"/>
<path d="M28.3787 29.4614C28.4887 29.6114 30.4085 32.2116 30.5185 32.3596" stroke="white" stroke-width="1.35" stroke-miterlimit="10" stroke-linecap="round"/>
<path d="M30.5645 32.3136C30.6784 32.1676 32.6763 29.6275 32.7903 29.4814" stroke="white" stroke-width="1.35" stroke-miterlimit="10" stroke-linecap="round"/>
<path d="M37.8267 5.06176C37.8433 7.415 35.1808 8.93521 33.134 7.92829C30.2774 6.61563 30.9985 2.42804 33.9661 1.8222C35.8881 1.3594 37.8739 3.02266 37.8267 5.00847V5.06457V5.06176Z" stroke="#1E40AF" stroke-width="1.6" stroke-miterlimit="10"/>
<path d="M22.4983 23.0573C22.5205 25.4322 19.7707 27.0384 17.6965 25.8344C15.2497 24.523 15.4944 20.8588 18.1413 19.9441C20.1794 19.1506 22.5733 20.8312 22.4983 23.0022V23.0573Z" stroke="#1E40AF" stroke-width="1.6" stroke-miterlimit="10"/>
<path d="M7.49828 39.0573C7.52052 41.4322 4.77067 43.0384 2.69646 41.8344C0.249681 40.523 0.494359 36.8588 3.14133 35.9441C5.17939 35.1506 7.57335 36.8312 7.49828 39.0022V39.0573Z" stroke="#1E40AF" stroke-width="1.6" stroke-miterlimit="10"/>
<path d="M16.7434 22.011L16.1934 21.861C14.0155 21.177 11.8117 20.375 10.1018 18.8289C7.27191 16.4368 6.67395 12.4466 8.49984 9.19641C9.39379 7.51832 10.9197 6.17826 12.6996 5.51422C14.5535 4.81419 16.6094 4.82819 18.5653 4.82619C22.555 4.82219 26.8762 4.80625 31 4.82625" stroke="#1E40AF" stroke-width="1.6" stroke-miterlimit="10"/>
<path d="M7.59375 39.4957C11.6115 39.5137 15.9433 39.4537 19.829 39.4497C21.7329 39.4497 23.7348 39.4577 25.5407 38.7897C27.2846 38.1537 28.7785 36.8616 29.6485 35.2455C30.6384 33.4894 30.8544 31.5693 30.4004 29.8153C29.8725 27.7752 28.4025 26.1091 26.5027 25.217L25.5407 24.729" stroke="#1E40AF" stroke-width="1.6" stroke-miterlimit="10"/>
<path d="M22.0149 23.4048C23.7088 23.9568 25.3447 24.5488 25.8707 24.9169" stroke="#1E40AF" stroke-width="1.6" stroke-miterlimit="10"/>
<path d="M7.30319 13.3456L4.07535 6.64798L13.2609 8.89773L7.30319 13.3456Z" fill="#1E40AF"/>
<path d="M28.0326 37.5315L26.661 30.2217L34.9442 34.7848L28.0326 37.5315Z" fill="#1E40AF"/>
<path d="M55.544 33.32C53.8373 33.32 52.2053 33.064 50.648 32.552C49.0907 32.0186 47.864 31.336 46.968 30.504L48.152 28.008C49.0053 28.7546 50.0933 29.3733 51.416 29.864C52.7387 30.3546 54.1147 30.6 55.544 30.6C56.8453 30.6 57.9013 30.4506 58.712 30.152C59.5227 29.8533 60.12 29.448 60.504 28.936C60.888 28.4026 61.08 27.8053 61.08 27.144C61.08 26.376 60.824 25.7573 60.312 25.288C59.8213 24.8186 59.1707 24.4453 58.36 24.168C57.5707 23.8693 56.696 23.6133 55.736 23.4C54.776 23.1866 53.8053 22.9413 52.824 22.664C51.864 22.3653 50.9787 21.992 50.168 21.544C49.3787 21.096 48.7387 20.4986 48.248 19.752C47.7573 18.984 47.512 18.0026 47.512 16.808C47.512 15.656 47.8107 14.6 48.408 13.64C49.0267 12.6586 49.9653 11.88 51.224 11.304C52.504 10.7066 54.1253 10.408 56.088 10.408C57.3893 10.408 58.68 10.5786 59.96 10.92C61.24 11.2613 62.3493 11.752 63.288 12.392L62.232 14.952C61.272 14.312 60.2587 13.8533 59.192 13.576C58.1253 13.2773 57.0907 13.128 56.088 13.128C54.8293 13.128 53.7947 13.288 52.984 13.608C52.1733 13.928 51.576 14.3546 51.192 14.888C50.8293 15.4213 50.648 16.0186 50.648 16.68C50.648 17.4693 50.8933 18.0986 51.384 18.568C51.896 19.0373 52.5467 19.4106 53.336 19.688C54.1467 19.9653 55.032 20.2213 55.992 20.456C56.952 20.6693 57.912 20.9146 58.872 21.192C59.8533 21.4693 60.7387 21.832 61.528 22.28C62.3387 22.728 62.9893 23.3253 63.48 24.072C63.9707 24.8186 64.216 25.7786 64.216 26.952C64.216 28.0826 63.9067 29.1386 63.288 30.12C62.6693 31.08 61.7093 31.8586 60.408 32.456C59.128 33.032 57.5067 33.32 55.544 33.32ZM75.835 33.256C74.107 33.256 72.5603 32.8826 71.195 32.136C69.851 31.3893 68.795 30.3653 68.027 29.064C67.259 27.7626 66.875 26.2693 66.875 24.584C66.875 22.8986 67.259 21.4053 68.027 20.104C68.795 18.8026 69.851 17.7893 71.195 17.064C72.5603 16.3173 74.107 15.944 75.835 15.944C77.371 15.944 78.7363 16.2533 79.931 16.872C81.147 17.4693 82.0857 18.3653 82.747 19.56L80.411 21.064C79.8563 20.232 79.1737 19.624 78.363 19.24C77.5737 18.8346 76.7203 18.632 75.803 18.632C74.6937 18.632 73.7017 18.8773 72.827 19.368C71.9523 19.8586 71.259 20.552 70.747 21.448C70.235 22.3226 69.979 23.368 69.979 24.584C69.979 25.8 70.235 26.856 70.747 27.752C71.259 28.648 71.9523 29.3413 72.827 29.832C73.7017 30.3226 74.6937 30.568 75.803 30.568C76.7203 30.568 77.5737 30.376 78.363 29.992C79.1737 29.5866 79.8563 28.968 80.411 28.136L82.747 29.608C82.0857 30.7813 81.147 31.688 79.931 32.328C78.7363 32.9466 77.371 33.256 75.835 33.256ZM86.5055 33.064V16.104H89.5775V33.064H86.5055ZM88.0415 12.84C87.4442 12.84 86.9428 12.648 86.5375 12.264C86.1535 11.88 85.9615 11.4106 85.9615 10.856C85.9615 10.28 86.1535 9.79996 86.5375 9.41596C86.9428 9.03196 87.4442 8.83996 88.0415 8.83996C88.6388 8.83996 89.1295 9.03196 89.5135 9.41596C89.9188 9.77863 90.1215 10.2373 90.1215 10.792C90.1215 11.368 89.9295 11.8586 89.5455 12.264C89.1615 12.648 88.6602 12.84 88.0415 12.84ZM102.995 33.256C101.182 33.256 99.5817 32.8826 98.195 32.136C96.8297 31.3893 95.763 30.3653 94.995 29.064C94.2483 27.7626 93.875 26.2693 93.875 24.584C93.875 22.8986 94.2377 21.4053 94.963 20.104C95.7097 18.8026 96.723 17.7893 98.003 17.064C99.3043 16.3173 100.766 15.944 102.387 15.944C104.03 15.944 105.48 16.3066 106.739 17.032C107.998 17.7573 108.979 18.7813 109.683 20.104C110.408 21.4053 110.771 22.9306 110.771 24.68C110.771 24.808 110.76 24.9573 110.739 25.128C110.739 25.2986 110.728 25.4586 110.707 25.608H96.275V23.4H109.107L107.859 24.168C107.88 23.08 107.656 22.1093 107.187 21.256C106.718 20.4026 106.067 19.7413 105.235 19.272C104.424 18.7813 103.475 18.536 102.387 18.536C101.32 18.536 100.371 18.7813 99.539 19.272C98.707 19.7413 98.0563 20.4133 97.587 21.288C97.1177 22.1413 96.883 23.1226 96.883 24.232V24.744C96.883 25.8746 97.139 26.888 97.651 27.784C98.1843 28.6586 98.9203 29.3413 99.859 29.832C100.798 30.3226 101.875 30.568 103.091 30.568C104.094 30.568 105 30.3973 105.811 30.056C106.643 29.7146 107.368 29.2026 107.987 28.52L109.683 30.504C108.915 31.4 107.955 32.0826 106.803 32.552C105.672 33.0213 104.403 33.256 102.995 33.256ZM124.093 15.944C125.479 15.944 126.695 16.2106 127.741 16.744C128.807 17.2773 129.639 18.088 130.237 19.176C130.834 20.264 131.133 21.64 131.133 23.304V33.064H128.061V23.656C128.061 22.0133 127.655 20.776 126.845 19.944C126.055 19.112 124.935 18.696 123.485 18.696C122.397 18.696 121.447 18.9093 120.637 19.336C119.826 19.7626 119.197 20.392 118.749 21.224C118.322 22.056 118.109 23.0906 118.109 24.328V33.064H115.037V16.104H117.981V20.68L117.501 19.464C118.055 18.3546 118.909 17.4906 120.061 16.872C121.213 16.2533 122.557 15.944 124.093 15.944ZM142.642 33.256C140.935 33.256 139.613 32.7973 138.674 31.88C137.735 30.9626 137.266 29.6506 137.266 27.944V12.392H140.338V27.816C140.338 28.7333 140.562 29.4373 141.01 29.928C141.479 30.4186 142.141 30.664 142.994 30.664C143.954 30.664 144.754 30.3973 145.394 29.864L146.354 32.072C145.885 32.4773 145.319 32.776 144.658 32.968C144.018 33.16 143.346 33.256 142.642 33.256ZM134.386 18.632V16.104H145.202V18.632H134.386ZM150.068 33.064V16.104H153.14V33.064H150.068ZM151.604 12.84C151.007 12.84 150.505 12.648 150.1 12.264C149.716 11.88 149.524 11.4106 149.524 10.856C149.524 10.28 149.716 9.79996 150.1 9.41596C150.505 9.03196 151.007 8.83996 151.604 8.83996C152.201 8.83996 152.692 9.03196 153.076 9.41596C153.481 9.77863 153.684 10.2373 153.684 10.792C153.684 11.368 153.492 11.8586 153.108 12.264C152.724 12.648 152.223 12.84 151.604 12.84ZM162.334 21.256H173.886V24.008H162.334V21.256ZM162.654 33.064H159.454V10.664H175.262V13.448H162.654V33.064ZM179.318 33.064V9.31996H182.39V33.064H179.318ZM195.52 33.256C193.813 33.256 192.298 32.8826 190.976 32.136C189.653 31.3893 188.608 30.3653 187.84 29.064C187.072 27.7413 186.688 26.248 186.688 24.584C186.688 22.8986 187.072 21.4053 187.84 20.104C188.608 18.8026 189.653 17.7893 190.976 17.064C192.298 16.3173 193.813 15.944 195.52 15.944C197.205 15.944 198.709 16.3173 200.032 17.064C201.376 17.7893 202.421 18.8026 203.168 20.104C203.936 21.384 204.32 22.8773 204.32 24.584C204.32 26.2693 203.936 27.7626 203.168 29.064C202.421 30.3653 201.376 31.3893 200.032 32.136C198.709 32.8826 197.205 33.256 195.52 33.256ZM195.52 30.568C196.608 30.568 197.578 30.3226 198.432 29.832C199.306 29.3413 199.989 28.648 200.48 27.752C200.97 26.8346 201.216 25.7786 201.216 24.584C201.216 23.368 200.97 22.3226 200.48 21.448C199.989 20.552 199.306 19.8586 198.432 19.368C197.578 18.8773 196.608 18.632 195.52 18.632C194.432 18.632 193.461 18.8773 192.608 19.368C191.754 19.8586 191.072 20.552 190.56 21.448C190.048 22.3226 189.792 23.368 189.792 24.584C189.792 25.7786 190.048 26.8346 190.56 27.752C191.072 28.648 191.754 29.3413 192.608 29.832C193.461 30.3226 194.432 30.568 195.52 30.568ZM211.683 33.064L205.379 16.104H208.291L213.891 31.464H212.515L218.339 16.104H220.931L226.627 31.464H225.283L231.011 16.104H233.763L227.427 33.064H224.483L219.139 19.048H220.035L214.627 33.064H211.683Z" fill="#475569"/>
</svg>
